<svg width="44" height="44" viewBox="0 0 44 44" fill="none" xmlns="http://www.w3.org/2000/svg">
<rect width="44" height="44" rx="22" fill="white"/>
<path d="M22 12C27.5228 12 32 16.4772 32 22C32 27.5228 27.5228 32 22 32H13.1611C12.238 31.9997 11.8081 30.855 12.5029 30.2471L14.4443 28.5479C12.9225 26.7933 12 24.5049 12 22C12 16.4772 16.4772 12 22 12ZM22 17C21.4477 17 21 17.4477 21 18V21H18C17.4477 21 17 21.4477 17 22C17 22.5523 17.4477 23 18 23H21V26C21 26.5523 21.4477 27 22 27C22.5523 27 23 26.5523 23 26V23H26C26.5523 23 27 22.5523 27 22C27 21.4477 26.5523 21 26 21H23V18C23 17.4477 22.5523 17 22 17Z" fill="#E7704A"/>
</svg>
