<svg width="24" height="24" viewBox="0 0 24 24" fill="none" xmlns="http://www.w3.org/2000/svg">
<path d="M15.6729 3.91324C16.8918 2.69429 18.8682 2.69429 20.0871 3.91324C21.3061 5.13219 21.3061 7.1085 20.0871 8.32745L14.1499 14.2646C13.3849 15.0296 12.3925 15.5259 11.3215 15.6789L9.14142 15.9903C8.82983 16.0348 8.51546 15.93 8.29289 15.7074C8.07033 15.4849 7.96554 15.1705 8.01005 14.8589L8.32149 12.6789C8.47449 11.6079 8.97072 10.6154 9.7357 9.85043L15.6729 3.91324ZM18.6729 5.32745C18.235 4.88955 17.525 4.88955 17.0871 5.32745L11.1499 11.2646C10.6909 11.7236 10.3932 12.3191 10.3014 12.9617L10.1785 13.8218L11.0386 13.699C11.6812 13.6072 12.2767 13.3094 12.7357 12.8504L18.6729 6.91324C19.1108 6.47533 19.1108 5.76535 18.6729 5.32745ZM11 3.99965C11.0004 4.55194 10.5531 5 10.0008 5.00043C9.00227 5.00121 8.29769 5.00864 7.74651 5.06101C7.20685 5.11228 6.88488 5.20153 6.63803 5.32731C6.07354 5.61493 5.6146 6.07387 5.32698 6.63836C5.19279 6.90172 5.10062 7.2494 5.05118 7.85457C5.00078 8.47141 5 9.26372 5 10.4003V13.6003C5 14.7369 5.00078 15.5293 5.05118 16.1461C5.10062 16.7513 5.19279 17.0989 5.32698 17.3623C5.6146 17.9268 6.07354 18.3857 6.63803 18.6734C6.90138 18.8075 7.24907 18.8997 7.85424 18.9492C8.47108 18.9996 9.26339 19.0003 10.4 19.0003H13.6C14.7366 19.0003 15.5289 18.9996 16.1458 18.9492C16.7509 18.8997 17.0986 18.8075 17.362 18.6734C17.9265 18.3857 18.3854 17.9268 18.673 17.3623C18.7988 17.1154 18.8881 16.7935 18.9393 16.2538C18.9917 15.7026 18.9991 14.9981 18.9999 13.9996C19.0003 13.4473 19.4484 12.9999 20.0007 13.0003C20.553 13.0008 21.0003 13.4488 20.9999 14.0011C20.9991 14.9793 20.9932 15.7811 20.9304 16.443C20.8664 17.1163 20.7385 17.714 20.455 18.2703C19.9757 19.2111 19.2108 19.976 18.27 20.4554C17.6777 20.7572 17.0375 20.883 16.3086 20.9425C15.6008 21.0003 14.7266 21.0003 13.6428 21.0003H10.3572C9.27339 21.0003 8.39925 21.0003 7.69138 20.9425C6.96253 20.883 6.32234 20.7572 5.73005 20.4554C4.78924 19.976 4.02433 19.2111 3.54497 18.2703C3.24318 17.678 3.11737 17.0378 3.05782 16.309C2.99998 15.6011 2.99999 14.7269 3 13.6431V10.3575C2.99999 9.27374 2.99998 8.39959 3.05782 7.69171C3.11737 6.96286 3.24318 6.32267 3.54497 5.73038C4.02433 4.78957 4.78924 4.02467 5.73005 3.5453C6.28633 3.26186 6.88399 3.13395 7.55735 3.06997C8.21919 3.00709 9.02103 3.00119 9.99922 3.00043C10.5515 3 10.9996 3.44737 11 3.99965Z" fill="#0D0D0D"/>
</svg>
