<svg width="32" height="32" viewBox="0 0 32 32" fill="none" xmlns="http://www.w3.org/2000/svg">
<path d="M0 16C0 7.16344 7.16344 0 16 0V0C24.8366 0 32 7.16344 32 16V16C32 24.8366 24.8366 32 16 32V32C7.16344 32 0 24.8366 0 16V16Z" fill="#0D0D0D"/>
<path fill-rule="evenodd" clip-rule="evenodd" d="M13.5 8C14.3284 8 15 8.67157 15 9.5V22.5C15 23.3284 14.3284 24 13.5 24C12.6716 24 12 23.3284 12 22.5V9.5C12 8.67157 12.6716 8 13.5 8ZM18.5 11C19.3284 11 20 11.6716 20 12.5V19.5C20 20.3284 19.3284 21 18.5 21C17.6716 21 17 20.3284 17 19.5V12.5C17 11.6716 17.6716 11 18.5 11ZM8.5 13C9.32843 13 10 13.6716 10 14.5V17.5C10 18.3284 9.32843 19 8.5 19C7.67157 19 7 18.3284 7 17.5V14.5C7 13.6716 7.67157 13 8.5 13ZM23.5 13C24.3284 13 25 13.6716 25 14.5V17.5C25 18.3284 24.3284 19 23.5 19C22.6716 19 22 18.3284 22 17.5V14.5C22 13.6716 22.6716 13 23.5 13Z" fill="white"/>
</svg>
